# xmcd
#
# Track frame offsets: 
#        150
#        13489
#        23462
#        37908
#        57104
#        72985
#        92104
#        104461
#        115953
#        128649
#        139690
#        153240
#        167412
#        182085
#        194401
#        211712
#        222936
#        232394
#        248492
#        261783
#
# Disc length: 3657 seconds
#
# Revision: 0
# Processed by: cddbd v1.5.2PL0 Copyright (c) Steve Scherf et al.
# Submitted via: ExactAudioCopy v0.99pb4
#
DISCID=130e4714
DTITLE=Various Artist - 100 Essential Tracks - 60s - CD1
DYEAR=2010
DGENRE=60s
TTITLE0=Roy Orbison - Oh Pretty Woman
TTITLE1=Elvis Presley - Kissin' Cousins
TTITLE2=Gary Puckett and Union Gap - Young Girl
TTITLE3=Blood, Sweat and Tears - You've Made Me So Very Happy
TTITLE4=The Band - The Night They Drove Old Dixie Down
TTITLE5=Big Brother and The Holding Company - Piece Of My Heart
TTITLE6=Harry Nilsson - Everybody's Talkin'
TTITLE7=Jefferson Airplane - White Rabbit
TTITLE8=Moby Grape - Fall On You
TTITLE9=Paul Rever and The Raiders - Kicks
TTITLE10=Taj Mahal - Six Days On The Road
TTITLE11=Fleetwood Mac - Albatross
TTITLE12=Chicken Shack - I'd Rather Go Blind
TTITLE13=The Strangeloves - Cara-Lin
TTITLE14=The Byrds - Turn Turn Turn (To Everything There Is A Season)
TTITLE15=Ronny and The Daytonas - G.T.O.
TTITLE16=The Lovin' Spoonful - Do You Believe In Magic?
TTITLE17=Joe South - Games People Play
TTITLE18=Gale Garnett - We'll Sing In The Sunshine
TTITLE19=Hugo Montenegro - The Good, The Bad And The Ugly
EXTD=
EXTT0=
EXTT1=
EXTT2=
EXTT3=
EXTT4=
EXTT5=
EXTT6=
EXTT7=
EXTT8=
EXTT9=
EXTT10=
EXTT11=
EXTT12=
EXTT13=
EXTT14=
EXTT15=
EXTT16=
EXTT17=
EXTT18=
EXTT19=
PLAYORDER=
